<?xml version="1.0" encoding="utf-8"?>
<!-- Generator: Adobe Illustrator 16.0.0, SVG Export Plug-In . SVG Version: 6.00 Build 0)  -->
<!DOCTYPE svg PUBLIC "-//W3C//DTD SVG 1.1//EN" "http://www.w3.org/Graphics/SVG/1.1/DTD/svg11.dtd">
<svg version="1.1"
	 id="svg2" inkscape:version="0.48.4 r9939" xmlns:dc="http://purl.org/dc/elements/1.1/" xmlns:cc="http://creativecommons.org/ns#" xmlns:rdf="http://www.w3.org/1999/02/22-rdf-syntax-ns#" xmlns:svg="http://www.w3.org/2000/svg" xmlns:sodipodi="http://sodipodi.sourceforge.net/DTD/sodipodi-0.dtd" xmlns:inkscape="http://www.inkscape.org/namespaces/inkscape"
	 xmlns="http://www.w3.org/2000/svg" xmlns:xlink="http://www.w3.org/1999/xlink" x="0px" y="0px" width="697.574px" height="164px"
	 viewBox="27.664 396.681 697.574 164" enable-background="new 27.664 396.681 697.574 164" xml:space="preserve">
<sodipodi:namedview  showgrid="false" inkscape:cy="520" inkscape:cx="375" inkscape:zoom="0.35" borderopacity="1.0" bordercolor="#666666" pagecolor="#ffffff" id="base" inkscape:window-maximized="1" inkscape:window-width="1920" inkscape:current-layer="layer1" inkscape:pageshadow="2" inkscape:window-y="-4" inkscape:pageopacity="0.0" inkscape:document-units="px" inkscape:window-height="1017" inkscape:window-x="-4">
	</sodipodi:namedview>
<g id="layer1" inkscape:label="Layer 1" inkscape:groupmode="layer">
	<g id="g3421" transform="translate(2.4928569,395.05316)">
		<g id="g3219">
			<g id="g3221">
				<g id="g3223">
					<path id="path3225" inkscape:connector-curvature="0" fill="#0072B6" d="M171.8,60.5c1.3,0.2,1.9,0.9,1.9,2.301V77.5
						c0,4.301,0.8,7.5,3.2,9.9c2.5,2.5,5.6,3.9,11.3,3.9c8.7,0,13.5-5.301,13.5-13.301V63c0-1.399,0.7-2.199,2-2.5v-1.3h-9.5v1.3
						c1.2,0.2,2,1.301,2,2.4v13.6c0,5.9-2.5,8.9-7.9,8.9c-5.2,0-7.8-3.1-7.8-7.9v-14c0-1.699,0.5-2.6,1.8-3V59.3h-10.7V60.5H171.8z"
						/>
					<path id="path3227" inkscape:connector-curvature="0" fill="#0072B6" d="M206.3,60.4c1.2,0.3,2.1,1.1,2.1,2.6v23.9
						c0,1.1-0.8,2.1-2.1,2.2v1.2h9.5v-1.2c-1.2-0.2-2.1-1.3-2.1-2.5V67.4l21.8,23.3h3.2V62.9c0-0.8,0.1-2,2-2.5v-1.2h-9.6v1.2
						c1.2,0.1,2.1,1.3,2.1,2.7v15.2l-18-19.101h-8.9V60.4L206.3,60.4z"/>
					<path id="path3229" inkscape:connector-curvature="0" fill="#0072B6" d="M243.4,60.4c1.3,0.3,1.9,1.1,1.9,3v23.2
						c0,1-0.5,2.1-1.8,2.5v1.2h10.6v-1.2c-1.4-0.3-1.9-1.601-1.9-3.101V62.6c0-1.101,0.7-2,1.8-2.2v-1.2h-10.6V60.4z"/>
					<path id="path3231" inkscape:connector-curvature="0" fill="#0072B6" d="M254.3,60.4c1.3,0.4,2.1,1.3,2.8,2.8L269.7,91.3h3.5
						L285,63.5c0.7-1.5,1.6-2.8,2.8-3v-1.3h-9.6v1.2c1,0.1,1.4,0.6,1.4,1.3c0,0.5-0.1,1-0.4,1.7l-7.2,17l-7.8-17.5
						c-0.2-0.4-0.3-0.8-0.3-1.1c0-0.7,0.4-1.2,1.5-1.301V59.3h-11.1V60.4z"/>
					<path id="path3233" inkscape:connector-curvature="0" fill="#0072B6" d="M289.2,60.4c1.6,0.5,1.9,1.5,1.9,2.9v23
						c0,1.899-0.7,2.6-1.9,2.8v1.2h23.2l2.8-7.601h-1.6c-0.9,1.3-2.3,2.4-4.5,2.4h-11.2v-8.8h11.5c1.5,0,2.3,0.6,2.6,1.8h1.2v-8.8
						H312c-0.4,1.199-1.2,1.8-3.1,1.8h-11V64.5h10.2c2.4,0,3.9,0.601,4.9,2.2h1.7l-3-7.6h-22.6v1.3H289.2z"/>
					<path id="path3235" inkscape:connector-curvature="0" fill="#0072B6" d="M316.8,60.4c1.2,0.3,1.8,1.2,1.8,2.7v23.8
						c0,1.1-0.7,2-1.8,2.3V90.3h10.5v-1c-1.4-0.4-1.9-1.5-1.9-3.101V64.3h3.3c3.4,0,5.1,0.899,5.1,3.5c0,3-2.6,3.899-5.8,3.899h-0.7
						V76c4.7,3.5,8.1,9.2,8.1,11.7c0,0.9-0.6,1.3-1.4,1.4v1.1h11.3v-1.1c-1.9-0.7-2.9-6.5-7.4-10.9c-1.7-1.7-2.8-2.399-3.9-3.1
						c4.4-1,6.6-3.7,6.6-7.9c0-4.1-2.5-8.1-9.5-8.1h-14.3V60.4L316.8,60.4z"/>
					<path id="path3237" inkscape:connector-curvature="0" fill="#0072B6" d="M345,80.1l2.9,10.7h1.1l0.9-1.2
						c1.9,0.7,4.7,1.6,7.7,1.6c8,0,10.6-4.6,10.6-9.6c0-2.5-1.2-4.8-2.7-6.2c-3.5-3.5-10.2-5.3-12.1-7.3c-0.7-0.601-0.8-1.3-0.8-1.8
						c0-1.4,1.1-3,3.9-3c4.4,0,7.2,3.5,8.6,5.899h1.7l-1.1-10.3h-1l-1.1,1.3c-1.5-0.7-3.5-1.8-7.5-1.8c-6.9,0-9.6,4.4-9.6,8.2
						c0,2.2,0.8,4.5,2.4,6.1c3.2,3.2,9.3,4.601,11.8,7.2c1,1,1.2,1.8,1.2,2.7c0,1.6-1.1,3.6-4.6,3.6c-3.7,0-8-2.399-10.2-6H345V80.1
						z"/>
					<path id="path3239" inkscape:connector-curvature="0" fill="#0072B6" d="M369.8,60.4c1.299,0.3,1.9,1.1,1.9,3v23.2
						c0,1-0.5,2.1-1.8,2.5v1.2h10.6v-1.2c-1.4-0.3-1.9-1.601-1.9-3.101V62.6c0-1.101,0.701-2,1.801-2.2v-1.2h-10.6V60.4z"/>
					<path id="path3241" inkscape:connector-curvature="0" fill="#0072B6" d="M395.201,64.5c6.5,0,10.199,3.9,10.199,10.301
						c0,7-4.199,10.3-11.1,10.3H391V64.5H395.201z M382.2,60.4c1.399,0.3,1.899,1.3,1.899,2.6v23.5c0,1.301-0.6,2.301-1.899,2.601
						v1.2h13.899c10.701,0,16.5-6.2,16.5-15.601c0-9.899-6.5-15.5-16.398-15.5h-14.102v1.2H382.2z"/>
					<path id="path3243" inkscape:connector-curvature="0" fill="#0072B6" d="M431.701,77.9H423.5l4-8.6L431.701,77.9z M414.4,84.8
						c-1.6,3.5-2.301,4.1-3.5,4.399V90.3h9.5V89.2c-1.1,0-1.4-0.6-1.4-1.2c0-0.5,0.301-1.199,0.5-1.699l1.6-3.4h13l1.801,3.6
						c0.301,0.601,0.4,1.101,0.4,1.4c0,0.7-0.4,1.1-1.5,1.2v1.1h11v-1.1c-1.5-0.601-2.201-1.7-2.801-3l-13.199-27.9h-3.1L414.4,84.8
						L414.4,84.8z"/>
					<path id="path3245" inkscape:connector-curvature="0" fill="#0072B6" d="M459.099,64.5c6.5,0,10.201,3.9,10.201,10.301
						c0,7-4.201,10.3-11.1,10.3h-3.4V64.5H459.099z M446,60.4c1.4,0.3,1.9,1.3,1.9,2.6v23.5c0,1.301-0.6,2.301-1.9,2.601v1.2h13.9
						c10.699,0,16.6-6.2,16.6-15.601c0-9.899-6.5-15.5-16.4-15.5H446V60.4z"/>
				</g>
				<g id="g3247">
					<path id="path3249" inkscape:connector-curvature="0" fill="#0072B6" d="M518.301,116.3c-0.801,0.699-2.1,1.399-3.4,1.399
						c-1.9,0-3.6-1.399-3.6-4.3c0-2.6,1.199-4.1,3.398-4.1c1.4,0,2.5,0.5,3.602,1.399V116.3L518.301,116.3z M517,101.5
						c0.801,0,1.301,0.601,1.301,1.4v4c-1.201-0.4-2.701-0.9-4.201-0.9c-4.199,0-7.398,3-7.398,7.801c0,4.5,3,7.6,6.799,7.6
						c1.701,0,3.6-0.8,4.801-2v2h1c1.699-1.4,3.4-2.1,4.799-2.8v-0.9c-1,0-1.299-0.5-1.299-1.8V97.3h-0.9c-1,1-2.9,2.3-4.801,3.399
						v0.8H517z"/>
					<path id="path3251" inkscape:connector-curvature="0" fill="#0072B6" d="M531.801,112.5c-0.1-1.6,1-3.399,3.1-3.399
						c1.199,0,2,0.6,2.699,1.8L531.801,112.5z M540.701,115.4c-1.201,1.2-2.801,2.5-4.9,2.5c-1.801,0-3.1-1.1-3.6-2.5l10.898-2.9
						l-0.299-1.199c-0.9-0.101-1-1.7-2.701-3.4c-0.799-0.8-2.299-1.9-5-1.9c-4.1,0-7.6,2.7-7.6,7.801c0,1.5,0.6,7.699,7.6,7.699
						c3.602,0,5.701-1.699,7.801-4L540.701,115.4z"/>
					<path id="path3253" inkscape:connector-curvature="0" fill="#0072B6" d="M576.301,113.3c-1.801,2.6-4.1,4.199-7.5,4.199
						c-4.801,0-7.801-3.8-7.801-8.8c0-5.2,3.701-7.7,7.6-7.7c2.701,0,5.9,1.2,7.701,4.5h1.4L576.4,97.8h-0.9l-0.799,0.899
						c-2.102-1-4.301-1.5-6.602-1.5c-4.398,0-7.1,1.601-8.699,3.2c-2.4,2.4-3.6,5.2-3.6,8.8c0,3.4,1.1,6.7,3.6,9.3
						c1.9,1.9,4.5,3.101,8.4,3.101c5.1,0,8.699-2.101,11.299-6.5L576.301,113.3L576.301,113.3z"/>
					<path id="path3255" inkscape:connector-curvature="0" fill="#0072B6" d="M591.5,105.9c-5,0-8.699,3.2-8.699,7.9
						c0,4.1,2.699,7.899,7.9,7.899c4.699,0,8.699-2.899,8.699-7.899C599.5,109.5,596.5,105.9,591.5,105.9z M591.099,109.2
						c2.4,0,4.1,2.4,4.1,5.2c0,2.6-1.898,4-4,4c-2.699,0-4.1-2.7-4.1-5.1C587.099,110.7,588.801,109.2,591.099,109.2z"/>
					<path id="path3257" inkscape:connector-curvature="0" fill="#0072B6" d="M603.099,101.6c0.801,0,1.301,0.399,1.301,1.3v15.5
						c0,1.1-0.4,1.6-1.4,1.8v0.8h7.199v-0.8c-0.898-0.2-1.299-0.7-1.299-1.899v-21H608c-1.299,1.199-3.1,2.5-4.9,3.399V101.6z"/>
					<path id="path3259" inkscape:connector-curvature="0" fill="#0072B6" d="M622.301,105.9c-5,0-8.701,3.2-8.701,7.9
						c0,4.1,2.701,7.899,7.9,7.899c4.701,0,8.801-2.899,8.801-7.899C630.301,109.5,627.301,105.9,622.301,105.9z M621.9,109.2
						c2.4,0,4.1,2.4,4.1,5.2c0,2.6-1.9,4-4,4c-2.699,0-4.1-2.7-4.1-5.1C617.9,110.7,619.699,109.2,621.9,109.2z"/>
					<path id="path3261" inkscape:connector-curvature="0" fill="#0072B6" d="M633.5,110.2c0.9,0,1.301,0.601,1.301,1.3v6.9
						c0,0.8-0.5,1.6-1.301,1.7v0.8h7v-0.7c-0.9-0.2-1.299-1-1.299-1.899V111c1.5-1,2.398-1.399,3.398-1.399
						c1.5,0,2.102,0.899,2.102,2.2v6.5c0,0.8-0.301,1.8-1.301,1.899v0.8h6.9v-0.8c-0.9-0.1-1.301-1-1.301-1.8V111
						c1.201-0.899,2.301-1.399,3.4-1.399c1.4,0,2.1,0.8,2.1,2.6v6.2c0,1-0.4,1.7-1.299,1.8v0.8h7v-0.8
						c-0.9-0.2-1.301-1.1-1.301-1.899v-7.7c0-1.5-0.699-4.5-4.801-4.5c-2.199,0-3.799,0.8-5.6,2.2c-0.6-1.2-2-2.2-4.199-2.2
						c-2,0-3.6,0.8-5.1,2.1V106h-1C637,107.2,635.4,108.3,633.5,109.3V110.2L633.5,110.2z"/>
					<path id="path3263" inkscape:connector-curvature="0" fill="#0072B6" d="M669,110.9c0.9-0.6,2.201-1.4,3.801-1.4
						c1.699,0,3.4,1.601,3.4,4.301c0,2.399-1.201,4.5-4,4.5c-1.9,0-3.201-1.2-3.201-2.9V110.9z M663.4,101.5
						c0.699,0,1.301,0.601,1.301,1.301v13.5c0,0.8-0.201,1.3-0.9,1.5v0.8c2.6,1.899,5.5,2.899,8.6,2.899c5,0,8.5-3.3,8.5-8.1
						c0-3.9-2.5-7.5-6.701-7.5c-2.199,0-3.6,0.7-5.199,1.8V97.3h-0.801c-1.299,1.199-2.5,2.199-4.799,3.399V101.5L663.4,101.5z"/>
					<path id="path3265" inkscape:connector-curvature="0" fill="#0072B6" d="M685.4,100.8c0.801,0.699,1.699,1.5,2.4,2.399h0.799
						c0.801-0.899,1.5-1.6,2.301-2.3V100c-0.801-0.699-1.5-1.399-2.199-2.199h-1c-0.701,0.8-1.5,1.5-2.301,2.199V100.8z
						 M684.801,110.4c0.799,0,1.299,0.6,1.299,1.5v6.5c0,0.9-0.398,1.7-1.299,1.8v0.8h7v-0.8c-0.801-0.2-1.301-0.8-1.301-1.8v-12.3
						h-0.799c-1.701,1.6-3.301,2.5-4.9,3.399V110.4z"/>
					<path id="path3267" inkscape:connector-curvature="0" fill="#0072B6" d="M706.099,117.3c-1.4,0.699-2.799,1.1-3.699,1.1
						c-1.201,0-1.9-0.6-1.9-1.8c0-1.7,2.199-2.3,5.301-2.7L706.099,117.3L706.099,117.3z M698.699,110.9c0.602-1.3,2.102-1.9,4-1.9
						c1.701,0,2.602,0.7,2.701,2c-3.9,0.301-6.5,0.9-8,2.4c-0.9,0.9-1.4,2-1.4,3.3c0,2.9,1.801,4.9,5.199,4.9
						c2,0,3.801-0.601,5.701-1.5c0.4,0.7,1.6,1.2,2.699,1.2s2.301-0.301,3.5-0.9l-0.6-2.3c-0.4,0.1-0.6,0.1-0.799,0.1
						c-0.301,0-0.5-0.1-0.701-0.3c-1.1-1.1-0.1-7.8-2.4-10.1c-1-1-2.5-1.7-5.1-1.7c-3.199,0-5.299,0.8-6.6,1.399
						c0.4,1.2,0.6,2,1,3.601l0.801-0.2H698.699z"/>
				</g>
				<g id="g3269">
					<path id="path3271" inkscape:connector-curvature="0" d="M517,80.1c-2.299,3.399-5.4,5.5-9.799,5.5
						c-6.301,0-10.301-5-10.301-11.5c0-6.8,4.801-10.101,10-10.101c3.5,0,7.699,1.601,10.199,5.9h1.801l-1.699-10.2H516l-1.1,1.2
						c-2.699-1.3-5.699-1.9-8.699-1.9c-5.801,0-9.301,2.101-11.4,4.2c-3.1,3.101-4.701,6.9-4.701,11.601c0,4.5,1.4,8.8,4.801,12.199
						c2.5,2.5,6,4.101,11,4.101c6.6,0,11.4-2.8,14.9-8.601L517,80.1z"/>
					<path id="path3273" inkscape:connector-curvature="0" d="M539.201,78.1h-8l3.898-8.4L539.201,78.1z M522.4,84.8
						c-1.6,3.399-2.199,4-3.4,4.3v1h9.301v-1c-1.1,0-1.4-0.601-1.4-1.2c0-0.5,0.299-1.1,0.5-1.6L529,83h12.6l1.701,3.5
						c0.299,0.601,0.4,1,0.4,1.4c0,0.6-0.4,1.1-1.5,1.2v1H552.9V89c-1.4-0.6-2.1-1.6-2.699-2.899L537.4,59h-3L522.4,84.8L522.4,84.8
						z"/>
					<path id="path3275" inkscape:connector-curvature="0" d="M545.9,67.3h1.4c1.1-1.5,2.299-2.2,4-2.2h7.299V86.5
						c0,1.2-0.6,2.301-1.799,2.4v1.2h10.4V89c-1.4-0.3-1.801-1.5-1.801-2.699V65.1h6.801c2,0,3.199,0.6,4.299,2.2h1.5l-2.799-7.4
						h-26.5L545.9,67.3L545.9,67.3z"/>
					<path id="path3277" inkscape:connector-curvature="0" d="M594.599,63.8c6.301,0,10.301,6,10.301,12.6c0,6.5-5,10-10.6,10
						c-6.5,0-10.201-6.1-10.201-12.7C584.099,68.2,588.5,63.8,594.599,63.8z M577.4,74.7c0,9.101,6.1,16.5,16.5,16.5
						c8.5,0,17.699-5.1,17.699-16.3c0-8.7-6.4-15.9-16.4-15.9C585.199,58.9,577.4,65.5,577.4,74.7L577.4,74.7z"/>
					<path id="path3279" inkscape:connector-curvature="0" d="M613.4,61c1.199,0.4,1.9,1.2,1.9,2.5V86.1c0,1.7-0.6,2.6-1.9,2.899
						V90.1h22.301l2.699-7.5H637c-0.699,1.3-1.9,2.5-4.299,2.5h-10.602V64c0-2,0.9-2.699,1.801-3v-1h-10.4v1H613.4z"/>
					<path id="path3281" inkscape:connector-curvature="0" d="M638.4,61.1c1.199,0.3,1.801,1.1,1.801,2.899v22.5
						c0,1-0.5,2-1.701,2.4V90h10.201V88.8c-1.4-0.301-1.801-1.601-1.801-3V63.3c0-1.101,0.6-1.9,1.699-2.101V60H638.4V61.1z"/>
					<path id="path3283" inkscape:connector-curvature="0" d="M677.301,80.1c-2.301,3.399-5.4,5.5-9.801,5.5
						c-6.299,0-10.299-5-10.299-11.5c0-6.8,4.799-10.101,10-10.101c3.5,0,7.699,1.601,10.199,5.9h1.801L677.5,59.7h-1.1l-1.1,1.2
						c-2.701-1.3-5.701-1.9-8.701-1.9c-5.799,0-9.299,2.101-11.398,4.2C652.099,66.3,650.5,70.1,650.5,74.8
						c0,4.5,1.4,8.8,4.801,12.199c2.5,2.5,6,4.101,11,4.101c6.6,0,11.4-2.8,14.9-8.601L677.301,80.1z"/>
					<path id="path3285" inkscape:connector-curvature="0" d="M699.5,78.1h-8l3.9-8.4L699.5,78.1z M682.701,84.8
						c-1.602,3.399-2.201,4-3.4,4.3v1h9.299v-1c-1.1,0-1.4-0.601-1.4-1.2c0-0.5,0.301-1.1,0.5-1.6L689.301,83h12.6l1.699,3.5
						c0.301,0.601,0.4,1,0.4,1.4c0,0.6-0.4,1.1-1.5,1.2v1h10.699V89c-1.398-0.6-2.1-1.6-2.699-2.899L697.701,59h-3L682.701,84.8
						L682.701,84.8z"/>
					<polygon id="polygon3287" points="597.5,57.1 606.301,48.2 597.9,48.2 592.301,57.1 					"/>
				</g>
			</g>
			<g id="g3289">
				<path id="path3291" inkscape:connector-curvature="0" fill="#FFFFFF" d="M136.8,29.4c2.3,11.6,4.2,21.4,5.6,29.8
					c-4,0.4-7,3.8-7,7.9C135.4,71.5,139,75,143.3,75c0.4,0,0.8,0,1.1-0.1c0.2,2.6,0.3,5,0.3,7.3c0,17.2-9.8,32.2-24.1,39.9
					c-6.6,3.6-25.3,8.3-29,20.799c-3.6-12.5-22.3-17.2-29-20.799c-14.4-7.7-24.1-22.7-24.1-39.9c0-2.2,0.1-4.7,0.3-7.3
					C39.2,75,39.6,75,40,75c4.4,0,7.9-3.6,7.9-7.899c0-4.101-3.1-7.4-7-7.9c1.4-8.399,3.3-18.2,5.6-29.8H136.8z"/>
				<path id="path3293" inkscape:connector-curvature="0" fill="#FFFFFF" d="M136.8,29.4c2.3,11.6,4.2,21.4,5.6,29.8
					c-4,0.4-7,3.8-7,7.9C135.4,71.5,139,75,143.3,75c0.4,0,0.8,0,1.1-0.1c0.2,2.6,0.3,5,0.3,7.3c0,17.2-9.8,32.2-24.1,39.9
					c-6.6,3.6-25.3,8.3-29,20.799c-3.6-12.5-22.3-17.2-29-20.799c-14.4-7.7-24.1-22.7-24.1-39.9c0-2.2,0.1-4.7,0.3-7.3
					C39.2,75,39.6,75,40,75c4.4,0,7.9-3.6,7.9-7.899c0-4.101-3.1-7.4-7-7.9c1.4-8.399,3.3-18.2,5.6-29.8H136.8z"/>
				<path id="path3295" inkscape:connector-curvature="0" d="M35.8,63.5c2-12.399,4.4-24.699,6.8-37c12-7,29.6,0.301,49.3,0.301
					c19.1,0,36.6-7.601,48.6-1c2.2,11,4.4,22,6.2,33.1l0.7,4.5c-2.5,0.3-7.7,0-7.7,4c0,2,1.6,3.6,3.6,3.6c1.6,0,4.9-0.699,5.1-0.699
					c0.3,4.1,0.7,8.199,0.7,12.3c0,18.899-10.7,35.3-26.4,43.8c-16.4,8.8-21,7.3-25,15.099c-1.2,2.301-2.3,5.301-3.7,9.701
					c-0.7,2.199-4,2.1-4.7-0.201c-1.4-4.398-2.5-7.398-3.7-9.699c-4-7.6-8.7-6.199-24.9-14.9c-15.7-8.5-26.4-24.9-26.4-43.8
					c0-4.101,0.4-8.2,0.7-12.3c0.2,0,3.5,0.699,5.1,0.699c2,0,3.6-1.6,3.6-3.6C43.5,63.5,38.3,63.8,35.8,63.5L35.8,63.5z"/>
				<path id="path3297" inkscape:connector-curvature="0" d="M137.9,13c0,0,0.3,1.301,0.6,3.101c-11.9-5-28.4,2-46.5,2
					c-18.7,0-35.4-6.601-47.3-1.3C45,15,45.3,13.5,45.3,13.5c11.9-5,28.3,1.801,46.8,1.801C109.7,15.3,126,8.5,137.9,13z"/>
				<polygon id="polygon3299" fill="#FFFFFF" points="86.5,29.4 46.4,29.4 136.8,29.4 96.4,29.4 91.5,29.4 				"/>
				<path id="path3301" inkscape:connector-curvature="0" fill="#FCC000" d="M42.6,26.6c12-7.101,29.6,0.3,49.4,0.3
					c19.1,0,36.6-7.6,48.6-0.9c0,0-1.9-9.699-2-9.699c-11.9-5-28.5,2-46.6,2C73.3,18.3,56.5,11.7,44.5,17
					C44.6,17,42.6,26.6,42.6,26.6z"/>
				<path id="path3303" inkscape:connector-curvature="0" fill="#FCC000" d="M44.6,104.9l93.8,0.2c-4.3,7.1-10.4,13-17.8,17
					c-6.6,3.6-25.3,8.3-29,20.799c-3.6-12.5-22.3-17.2-29-20.799C55.2,118.1,48.9,112.1,44.6,104.9L44.6,104.9z"/>
				<path id="path3305" inkscape:connector-curvature="0" fill="#FFFFFF" d="M47.9,68c0,0,87.6,0,87.5,0c0.5,4.101,3.8,7,7.9,7
					c0.4,0,0.8,0,1.1-0.1c0.2,2.6,0.3,5,0.3,7.3c0,8.3-2.3,16.101-6.3,22.9H44.8c-4-6.7-6.3-14.5-6.3-22.9c0-2.2,0.1-4.7,0.3-7.3
					C39.2,75,39.6,75,40,75C44.1,75,47.4,71.9,47.9,68z"/>
				<path id="path3307" inkscape:connector-curvature="0" fill="#0072B6" d="M47.9,68.2v-1c0-4.1-3.1-7.399-7-7.899
					c1.4-8.4,3.5-19,5.8-30.601l89.9,0.101c2.3,11.6,4.5,22.199,5.8,30.5c-4,0.399-7,3.8-7,7.899c0,0,0,0.7,0.1,1
					C135.2,68.1,47.9,68.2,47.9,68.2L47.9,68.2z"/>
				<polygon id="polygon3309" points="95.7,143.8 87.2,143.8 87.2,76.7 50.7,76.7 50.7,68.1 87.2,68.1 87.2,54 64.8,54 64.8,45.5 
					87.2,45.5 87.2,28.2 95.7,28.2 95.7,45.5 118.5,45.5 118.5,54 95.7,54 95.7,68.1 132.5,68.1 132.6,76.7 95.7,76.7 				"/>
				<g id="g3311">
					<g id="g3313">
						<path id="path3315" inkscape:connector-curvature="0" d="M49.9,18.7l0.4-0.1c0-0.2-0.1-0.4-0.2-0.601
							C50,17.8,49.9,17.7,49.8,17.6c-0.1-0.101-0.3-0.101-0.4-0.2c-0.2,0-0.3,0-0.5,0c-0.2,0-0.3,0.1-0.4,0.2
							c-0.1,0.1-0.3,0.2-0.4,0.3s-0.2,0.3-0.2,0.4c0,0.199,0,0.399,0,0.6s0.1,0.4,0.2,0.5s0.2,0.2,0.3,0.3
							c0.1,0.101,0.2,0.101,0.4,0.101c0.1,0,0.3,0,0.4,0.1c0.1,0,0.3,0,0.4,0s0.3,0,0.4,0.1c0.1,0,0.2,0.101,0.3,0.2
							c0.1,0.101,0.1,0.2,0.2,0.3c0,0.2,0,0.301,0,0.4s-0.1,0.2-0.2,0.3C50.2,21.3,50.1,21.3,50,21.4c-0.1,0-0.2,0.1-0.3,0.1
							s-0.3,0-0.4,0s-0.2-0.1-0.4-0.1c-0.1-0.1-0.2-0.2-0.3-0.3c-0.1-0.101-0.1-0.3-0.2-0.4H48c0,0.3,0.1,0.5,0.2,0.7
							s0.2,0.3,0.4,0.4C48.8,21.9,48.9,22,49.1,22c0.2,0,0.4,0,0.6,0s0.3-0.1,0.5-0.199c0.2-0.101,0.3-0.2,0.4-0.301
							c0.1-0.1,0.2-0.3,0.2-0.399c0.1-0.2,0.1-0.4,0-0.601c0-0.199-0.1-0.399-0.2-0.5c-0.1-0.1-0.2-0.199-0.3-0.3
							c-0.1-0.1-0.2-0.1-0.4-0.2c-0.1,0-0.3-0.1-0.4-0.1c-0.1,0-0.3,0-0.4,0s-0.3,0-0.4-0.1c-0.1,0-0.2-0.101-0.3-0.2
							c-0.1-0.101-0.1-0.2-0.1-0.3c0-0.101,0-0.301,0-0.4s0.1-0.2,0.1-0.3C48.5,18,48.5,18,48.6,17.9c0.1,0,0.2-0.1,0.3-0.1
							c0.2,0,0.4,0,0.6,0.1C49.7,18.2,49.8,18.4,49.9,18.7z"/>
						<path id="path3317" inkscape:connector-curvature="0" d="M52,19.7l0.4-2l0,0l0.7,2H52z M52.1,17.2l-1,4.4h0.5l0.3-1.3
							l1.5-0.101l0.5,1.3h0.5L52.8,17.3L52.1,17.2z"/>
						<path id="path3319" inkscape:connector-curvature="0" d="M55.1,19.1V17.5H56c0.3,0,0.5,0.101,0.6,0.2
							c0.1,0.101,0.2,0.3,0.2,0.601c0,0.3-0.1,0.5-0.2,0.6s-0.3,0.2-0.6,0.2H55.1z M54.7,17V21.3h0.5V19.5h1.1
							c0.3,0,0.6-0.1,0.8-0.3c0.2-0.2,0.3-0.5,0.3-0.899c0-0.4-0.1-0.7-0.3-0.9c-0.2-0.2-0.4-0.3-0.8-0.3h-1.6V17z"/>
						
							<rect id="rect3321" x="56.037" y="19.033" transform="matrix(-0.0351 0.9994 -0.9994 -0.0351 79.4996 -38.1912)" width="4.3" height="0.5"/>
						<polygon id="polygon3323" points="61.6,21.2 59.7,21 59.8,19.5 61.6,19.7 61.6,19.2 59.8,19 59.9,17.7 61.9,17.8 61.9,17.4 
							59.5,17.1 59.2,21.4 61.5,21.7 						"/>
						<polygon id="polygon3325" points="63,18.3 63,18.3 64.4,22 64.9,22 65.4,17.7 64.9,17.7 64.6,21.1 64.6,21.1 63.1,17.5 
							62.6,17.4 62.2,21.7 62.6,21.8 						"/>
						<polygon id="polygon3327" points="67.5,18.5 68.6,18.7 68.7,18.2 66,17.8 65.9,18.3 67,18.4 66.5,22.2 67,22.3 						"/>
						
							<rect id="rect3329" x="67.044" y="20.179" transform="matrix(-0.1394 0.9902 -0.9902 -0.1394 99.0724 -45.2405)" width="4.3" height="0.5"/>
						<path id="path3331" inkscape:connector-curvature="0" d="M70.8,21l0.9-1.899l0,0l0.3,2.1L70.8,21L70.8,21z M71.5,18.6
							l-1.9,4.1l0.5,0.101l0.6-1.2l1.4,0.2l0.2,1.3l0.5,0.1L72,18.6H71.5z"/>
						<path id="path3333" inkscape:connector-curvature="0" d="M75.5,21.7l0.9-1.899l0,0l0.3,2.1L75.5,21.7z M76.2,19.2L74.3,23.3
							l0.5,0.1l0.6-1.2l1.4,0.2l0.2,1.3l0.5,0.101l-0.7-4.5L76.2,19.2z"/>
						<polygon id="polygon3335" points="80.4,23.6 78.5,23.4 78.7,21.9 80.5,22.1 80.5,21.6 78.7,21.4 78.9,20.1 80.8,20.3 
							80.9,19.8 78.5,19.5 78,23.8 80.4,24.1 						"/>
						<path id="path3337" inkscape:connector-curvature="0" d="M81.6,23.7l0.4-3.3l0.8,0.1c0.2,0,0.4,0.101,0.5,0.2
							c0.1,0.101,0.2,0.2,0.3,0.4c0.1,0.1,0.1,0.3,0.1,0.5s0,0.399,0,0.7c0,0.3-0.1,0.5-0.1,0.699c-0.1,0.2-0.1,0.301-0.2,0.4
							c-0.1,0.1-0.2,0.2-0.3,0.3C83,23.8,82.9,23.8,82.8,23.8s-0.2,0-0.3,0c-0.1,0-0.1,0-0.2,0L81.6,23.7z M81.5,19.9l-0.4,4.3
							l1.2,0.101c0.3,0,0.5,0,0.8-0.101c0.2-0.1,0.4-0.2,0.6-0.399c0.2-0.2,0.3-0.4,0.4-0.7s0.2-0.601,0.2-1
							c0.1-0.7,0-1.2-0.3-1.601c-0.2-0.399-0.6-0.6-1.2-0.6H81.5z"/>
						
							<rect id="rect3339" x="82.928" y="22.159" transform="matrix(-0.0695 0.9976 -0.9976 -0.0695 113.3449 -60.9059)" width="4.3" height="0.5"/>
						<polygon id="polygon3341" points="86.7,22.6 88.3,22.7 88.3,22.2 86.7,22.2 86.8,20.8 88.6,20.9 88.6,20.4 86.3,20.3 
							86.1,24.6 86.6,24.6 						"/>
						
							<rect id="rect3343" x="87.3" y="22.408" transform="matrix(-0.035 0.9994 -0.9994 -0.035 115.2223 -65.9444)" width="4.3" height="0.5"/>
						<path id="path3345" inkscape:connector-curvature="0" d="M93,21.7h0.5c0-0.2-0.1-0.399-0.2-0.6s-0.2-0.3-0.3-0.4
							c-0.1-0.1-0.3-0.2-0.4-0.3c-0.2-0.1-0.3-0.1-0.5-0.1c-0.3,0-0.5,0.1-0.7,0.199C91.2,20.6,91,20.8,90.9,21
							c-0.1,0.2-0.2,0.4-0.3,0.7s-0.1,0.601-0.1,0.9s0,0.6,0.1,0.899c0.1,0.301,0.2,0.5,0.3,0.7c0.1,0.2,0.3,0.4,0.5,0.5
							c0.2,0.101,0.4,0.2,0.7,0.2c0.4,0,0.8-0.2,1-0.5c0.3-0.3,0.4-0.7,0.4-1.3H93c0,0.2,0,0.3-0.1,0.5c0,0.2-0.1,0.3-0.2,0.399
							c-0.1,0.101-0.2,0.2-0.3,0.301c-0.1,0.1-0.3,0.1-0.4,0.1c-0.2,0-0.4,0-0.5-0.1c-0.1-0.101-0.3-0.2-0.4-0.4s-0.2-0.4-0.2-0.6
							c0-0.2-0.1-0.5-0.1-0.7s0-0.4,0.1-0.7c0-0.2,0.1-0.4,0.2-0.6c0.1-0.2,0.2-0.301,0.4-0.4c0.1-0.1,0.3-0.1,0.5-0.1
							c0.2,0,0.5,0.1,0.6,0.199C92.8,21.2,92.9,21.4,93,21.7z"/>
						<path id="path3347" inkscape:connector-curvature="0" d="M94.8,22.9l0.5-2l0,0l0.7,2H94.8z M95,20.4l-1.1,4.4h0.5l0.3-1.301
							l1.5-0.1l0.4,1.3h0.5l-1.6-4.2L95,20.4z"/>
						<polygon id="polygon3349" points="98.4,23.9 98.4,23.9 97.2,20.3 96.7,20.3 98.2,24.5 98.7,24.5 99.6,20.1 99.2,20.1 						
							"/>
						
							<rect id="rect3351" x="98.373" y="21.854" transform="matrix(0.1045 0.9945 -0.9945 0.1045 112.004 -80.1788)" width="4.3" height="0.5"/>
						<polygon id="polygon3353" points="102.7,20.2 103.8,20.1 103.8,19.6 101,19.9 101.1,20.4 102.2,20.3 102.7,24.1 103.2,24 
													"/>
						<path id="path3355" inkscape:connector-curvature="0" d="M107.9,20.3l0.4-0.101c0-0.2-0.1-0.399-0.2-0.6s-0.2-0.3-0.3-0.4
							c-0.1-0.1-0.3-0.2-0.4-0.2c-0.2,0-0.3,0-0.5,0c-0.2,0-0.3,0.101-0.4,0.101c-0.1,0.1-0.3,0.2-0.4,0.3s-0.2,0.3-0.2,0.4
							c0,0.199-0.1,0.399,0,0.6c0,0.2,0.1,0.4,0.2,0.5s0.2,0.2,0.3,0.3c0.1,0.101,0.2,0.101,0.4,0.101c0.1,0,0.3,0.1,0.4,0.1
							s0.3,0,0.4,0.1c0.1,0,0.3,0.101,0.4,0.101c0.1,0,0.2,0.1,0.3,0.2c0.1,0.1,0.1,0.199,0.1,0.3c0,0.2,0,0.3,0,0.399
							c0,0.101-0.1,0.2-0.2,0.301c-0.1,0.1-0.2,0.1-0.3,0.199c-0.1,0-0.2,0.101-0.3,0.101s-0.3,0-0.4,0S107,23,106.9,23
							c-0.1-0.1-0.2-0.199-0.3-0.3c-0.1-0.1-0.1-0.3-0.1-0.5l-0.4,0.101c0,0.3,0.1,0.5,0.2,0.699c0.1,0.2,0.2,0.301,0.4,0.4
							c0.1,0.1,0.3,0.2,0.5,0.2s0.4,0,0.6,0c0.2,0,0.3-0.101,0.5-0.101c0.2-0.1,0.3-0.199,0.4-0.3c0.1-0.1,0.2-0.3,0.3-0.399
							c0.1-0.2,0.1-0.4,0-0.601c0-0.2-0.1-0.399-0.2-0.5c-0.1-0.1-0.2-0.2-0.3-0.3c-0.1-0.1-0.2-0.1-0.4-0.2c-0.1,0-0.3-0.1-0.4-0.1
							s-0.3,0-0.4-0.101c-0.1,0-0.3,0-0.4-0.1c-0.1,0-0.2-0.1-0.3-0.2c-0.1-0.1-0.1-0.2-0.1-0.3s0-0.3,0-0.4
							c0-0.1,0.1-0.199,0.1-0.3c0.1-0.1,0.1-0.1,0.2-0.2c0.1,0,0.2-0.1,0.3-0.1c0.2,0,0.4,0,0.6,0.1C107.7,19.8,107.8,20,107.9,20.3
							z"/>
						
							<rect id="rect3357" x="107.333" y="20.753" transform="matrix(0.1563 0.9877 -0.9877 0.1563 113.1204 -90.4165)" width="4.3" height="0.5"/>
						<path id="path3359" inkscape:connector-curvature="0" d="M111,20.4l-0.2-1.4l0.9-0.1c0.1,0,0.2,0,0.3,0c0.1,0,0.2,0,0.2,0.1
							c0.1,0,0.1,0.101,0.2,0.2c0.1,0.101,0.1,0.2,0.1,0.4s0,0.399-0.1,0.5c-0.1,0.1-0.3,0.2-0.5,0.3H111z M110.3,18.7L111,23
							l1.6-0.3c0.2,0,0.3-0.1,0.4-0.2c0.1-0.1,0.2-0.199,0.3-0.3c0.1-0.1,0.1-0.3,0.1-0.399c0-0.2,0-0.301,0-0.5
							c0-0.301-0.1-0.5-0.3-0.601c-0.1-0.2-0.3-0.3-0.5-0.3l0,0c0.2-0.1,0.3-0.2,0.3-0.4c0.1-0.199,0.1-0.399,0-0.6
							c0-0.2-0.1-0.4-0.2-0.5s-0.2-0.2-0.3-0.3c-0.1,0-0.1-0.101-0.2-0.101s-0.2,0-0.2,0c-0.1,0-0.2,0-0.3,0s-0.2,0-0.2,0
							L110.3,18.7L110.3,18.7z M111.3,22.4l-0.2-1.5l1-0.2c0.1,0,0.2,0,0.3,0c0.1,0,0.2,0,0.3,0.101c0.1,0,0.1,0.1,0.2,0.199
							C113,21.1,113,21.2,113,21.3c0,0.199,0,0.399-0.1,0.6c-0.1,0.2-0.2,0.2-0.4,0.3L111.3,22.4L111.3,22.4z"/>
						
							<rect id="rect3361" x="112.147" y="19.995" transform="matrix(0.1565 0.9877 -0.9877 0.1565 116.4084 -95.8122)" width="4.3" height="0.5"/>
						<path id="path3363" inkscape:connector-curvature="0" d="M117.5,21.4l-0.5-3.3L117.8,18c0.2,0,0.4,0,0.5,0
							c0.2,0.101,0.3,0.101,0.4,0.301c0.1,0.1,0.2,0.3,0.3,0.5c0.1,0.199,0.1,0.399,0.2,0.699c0,0.301,0,0.5,0,0.7s0,0.4-0.1,0.5
							c0,0.101-0.1,0.2-0.2,0.3c-0.1,0.101-0.1,0.2-0.2,0.2s-0.2,0.101-0.2,0.101c-0.1,0-0.1,0-0.2,0L117.5,21.4L117.5,21.4z
							 M116.6,17.7l0.6,4.3l1.2-0.199c0.3,0,0.5-0.101,0.7-0.301c0.2-0.1,0.3-0.3,0.5-0.5c0.1-0.199,0.2-0.5,0.2-0.699
							c0-0.301,0-0.601,0-1c-0.1-0.7-0.3-1.2-0.6-1.5c-0.3-0.301-0.8-0.4-1.3-0.301L116.6,17.7L116.6,17.7z"/>
						<path id="path3365" inkscape:connector-curvature="0" d="M120.6,19.3c0-0.2,0-0.4,0-0.601s0.1-0.399,0.2-0.6s0.2-0.3,0.3-0.4
							c0.1-0.1,0.3-0.2,0.5-0.2c0.2,0,0.4,0,0.6,0.101c0.2,0.1,0.3,0.2,0.4,0.399c0.1,0.2,0.2,0.301,0.3,0.601
							C123,18.8,123,19,123,19.2s0,0.4,0,0.7c0,0.2-0.1,0.4-0.2,0.6c-0.1,0.2-0.2,0.301-0.3,0.4c-0.1,0.1-0.3,0.2-0.5,0.2
							c-0.2,0-0.4,0-0.6-0.101c-0.2-0.1-0.3-0.199-0.4-0.399c-0.1-0.2-0.2-0.3-0.3-0.5C120.7,19.8,120.7,19.5,120.6,19.3z
							 M120.2,19.4c0,0.3,0.1,0.6,0.2,0.8c0.1,0.3,0.2,0.5,0.4,0.7c0.2,0.2,0.3,0.3,0.6,0.4c0.2,0.1,0.5,0.1,0.7,0.1
							c0.3,0,0.5-0.1,0.7-0.3c0.2-0.101,0.3-0.3,0.5-0.601c0.1-0.199,0.2-0.5,0.2-0.699c0-0.301,0-0.601,0-0.9s-0.1-0.6-0.2-0.8
							c-0.1-0.3-0.2-0.5-0.4-0.7c-0.2-0.2-0.3-0.3-0.6-0.4c-0.2-0.1-0.5-0.1-0.7-0.1c-0.3,0-0.5,0.1-0.7,0.3
							c-0.2,0.101-0.3,0.3-0.5,0.601c-0.1,0.199-0.2,0.5-0.2,0.8C120.2,18.8,120.2,19.1,120.2,19.4z"/>
						<polygon id="polygon3367" points="124.6,17.5 124.6,17.5 125.8,21.1 126.2,21.1 127.1,17.4 127.1,17.4 127.3,21 127.8,21 
							127.5,16.7 126.9,16.7 126,20.4 124.7,16.8 124.1,16.8 124.3,21.2 124.8,21.1 						"/>
						<path id="path3369" inkscape:connector-curvature="0" d="M131.3,19.6l0.1-2.8h-0.5l-0.1,2.8c0,0.399-0.1,0.7-0.3,0.899
							c-0.2,0.2-0.4,0.301-0.7,0.301c-0.3,0-0.5-0.101-0.7-0.301c-0.2-0.199-0.2-0.5-0.2-0.899l0.1-2.8h-0.5l-0.1,2.8
							c0,0.6,0.1,1,0.3,1.3s0.6,0.4,1,0.4s0.8-0.101,1-0.4C131.1,20.5,131.2,20.1,131.3,19.6L131.3,19.6z"/>
					</g>
					<polygon id="polygon3371" points="132.8,17.7 132.8,17.7 133.3,21.4 133.7,21.5 135.3,18.1 135.3,18.1 134.8,21.6 135.2,21.7 
						135.9,17.4 135.3,17.3 133.6,20.7 133.1,17 132.5,16.9 131.8,21.2 132.2,21.2 					"/>
				</g>
			</g>
		</g>
		<g id="g3373">
			<path id="path3375" inkscape:connector-curvature="0" d="M507.801,135.7h1.799l4.4,17.4h0.1l4.5-17.4h1.6L515,155.3h-1.9
				L507.801,135.7L507.801,135.7z"/>
			<path id="path3377" inkscape:connector-curvature="0" d="M522.599,138.2v-2.5h1.801v2.5H522.599z M522.699,155.3v-14.4h1.5v14.4
				H522.699z"/>
			<path id="path3379" inkscape:connector-curvature="0" d="M534.801,140.899h1.5v14.1c0,3.102-1.1,5.301-4.5,5.301
				c-2.1,0-3.9-1-4-3.301h1.5c0.1,1.301,1.299,1.9,2.5,1.9c3.1,0,2.9-2.6,2.9-4.6h-0.102c-0.799,1-1.898,1.4-3,1.4
				c-3.898,0-4.1-4.4-4.1-7.4c0-2.699,0.1-7.699,4-7.699c1.5,0,2.4,0.5,3.201,1.699h0.1V140.899L534.801,140.899z M529.099,148.2
				c0,2,0.1,6.1,3,6.1c2.801,0,2.801-4,2.801-5.9c0-2.299,0.299-6.6-3-6.6C529.099,141.8,529.099,146.499,529.099,148.2z"/>
			<path id="path3381" inkscape:connector-curvature="0" d="M540,138.2v-2.5h1.801v2.5H540z M540.099,155.3v-14.4h1.5v14.4H540.099z
				"/>
			<path id="path3383" inkscape:connector-curvature="0" d="M545.9,155.3v-19.6h1.5v19.6H545.9z"/>
			<path id="path3385" inkscape:connector-curvature="0" d="M550.701,144.499c-0.102-2.5,1.299-4,3.799-4
				c1.201,0,2.301,0.301,3,1.102c0.701,0.799,0.701,1.799,0.701,2.799v8.9c0,0.9,0.199,1,1,1v1.1c-0.5,0.201-1.102,0.201-1.701,0.1
				c-0.699-0.299-0.699-0.6-0.799-1.299l0,0c-0.801,1-1.9,1.5-3.201,1.5c-2.6,0-3.299-1.801-3.299-4.1c0-1.701,0.5-2.9,2-3.701
				c1.299-0.6,2.699-1,3.898-1.6c0.201-0.1,0.4-0.4,0.4-0.6c0.1-0.6,0.1-1.801-0.1-2.4c-0.199-0.9-0.699-1.4-2.1-1.4
				c-2.1,0-2.1,1.4-2.4,2.701h-1.199V144.499z M556.701,147.499c-1,0.5-2,0.9-3,1.301c-1.5,0.699-1.9,1.301-1.9,3
				c0,1.4,0.4,2.5,2,2.5c1,0,1.699-0.4,2.1-1.1c0.6-0.9,0.699-2.1,0.699-3.201v-2.5H556.701z"/>
			<path id="path3387" inkscape:connector-curvature="0" d="M568.201,135.7h1.5v19.6h-1.5v-1.4h-0.102
				c-0.6,1.201-1.699,1.701-3.1,1.701c-3.9,0-4.199-4.701-4.199-7.602c0-2.898,0.299-7.5,4.199-7.5c1.201,0,2.301,0.602,3.1,1.5
				h0.102V135.7z M562.4,148.3c0,2,0.1,6,3,6c3.1,0,2.801-4.9,2.801-6.9s-0.102-5.6-2.9-5.6C562.5,141.8,562.4,146.3,562.4,148.3
				L562.4,148.3z"/>
			<path id="path3389" inkscape:connector-curvature="0" d="M572.5,144.499c-0.1-2.5,1.301-4,3.801-4c1.199,0,2.299,0.301,3,1.102
				c0.699,0.799,0.699,1.799,0.699,2.799v8.9c0,0.9,0.201,1,1,1v1.1c-0.5,0.201-1.1,0.201-1.699,0.1
				c-0.701-0.299-0.701-0.6-0.801-1.299l0,0c-0.799,1-1.9,1.5-3.199,1.5c-2.6,0-3.301-1.801-3.301-4.1c0-1.701,0.5-2.9,2-3.701
				c1.301-0.6,2.701-1,3.9-1.6c0.199-0.1,0.4-0.4,0.4-0.6c0.1-0.6,0.1-1.801-0.1-2.4c-0.201-0.9-0.701-1.4-2.102-1.4
				c-2.1,0-2.1,1.4-2.398,2.701H572.5V144.499z M578.5,147.499c-1,0.5-2,0.9-3,1.301c-1.5,0.699-1.9,1.301-1.9,3
				c0,1.4,0.4,2.5,2,2.5c1,0,1.701-0.4,2.1-1.1c0.602-0.9,0.701-2.1,0.701-3.201v-2.5H578.5z"/>
			<path id="path3391" inkscape:connector-curvature="0" d="M591,155.3h-1.699v-19.6h2.9l4.699,17.1h0.1l4.801-17.1h2.799v19.6
				H602.9v-17.9h-0.1l-4.9,17.9h-1.801l-4.9-17.9H591V155.3z"/>
			<path id="path3393" inkscape:connector-curvature="0" d="M608.301,138.2v-2.5h1.799v2.5H608.301z M608.4,155.3v-14.4h1.5v14.4
				H608.4z"/>
			<path id="path3395" inkscape:connector-curvature="0" d="M615.301,155.3h-1.5v-14.4h1.5v1.4h0.1c0.699-1.1,1.9-1.801,3.299-1.801
				c1.9,0,3.4,1.301,3.4,3.301v11.5h-1.5v-10.5c0-1.6-0.1-3-2.1-3c-1.5,0-3.1,1.199-3.1,2.801V155.3H615.301z"/>
			<path id="path3397" inkscape:connector-curvature="0" d="M632.9,147.999h-6.801c0,1.9-0.299,6.301,2.701,6.301
				c2.1,0,2.4-2,2.5-3.699h1.5c0,2.6-1.1,5.1-4,5.1c-4,0-4.201-4.6-4.201-7.5s0.201-7.6,4.201-7.6c3.299,0,4.1,3.299,4.1,6V147.999z
				 M631.4,146.7c0-1.801-0.199-4.801-2.6-4.801s-2.6,3.1-2.6,4.801H631.4L631.4,146.7z"/>
			<path id="path3399" inkscape:connector-curvature="0" d="M642.301,135.7h1.5v19.6h-1.5v-1.4h-0.1
				c-0.602,1.201-1.701,1.701-3.102,1.701c-3.898,0-4.199-4.701-4.199-7.602c0-2.898,0.301-7.5,4.199-7.5
				c1.201,0,2.301,0.602,3.102,1.5h0.1V135.7z M636.5,148.3c0,2,0.1,6,3,6c3.1,0,2.801-4.9,2.801-6.9s-0.1-5.6-2.9-5.6
				C636.5,141.8,636.5,146.3,636.5,148.3L636.5,148.3z"/>
			<path id="path3401" inkscape:connector-curvature="0" d="M653.9,140.899h1.5v14.4h-1.5v-1.301h-0.1
				c-0.9,1.201-2.1,1.701-3.6,1.701c-2.602,0-3.201-1.9-3.201-4.1v-10.701h1.5v10.9c0,1.801,0.701,2.699,2.5,2.5
				c1.201-0.1,2.301-1.301,2.801-2.5v-10.9H653.9z"/>
			<path id="path3403" inkscape:connector-curvature="0" d="M666.4,150.499c0,2.701-1,5.201-4,5.201c-4.199,0-4.4-4.4-4.4-7.701
				c0-3.1,0.301-7.5,4.301-7.5c2.6,0,3.9,2.201,3.9,4.602h-1.5c-0.102-1.801-0.9-3.301-2.5-3.301c-2.9,0.1-2.701,4.199-2.701,6.4
				c0,2-0.1,6.1,2.9,6.1c2.1,0,2.301-2.199,2.5-3.801H666.4z"/>
			<path id="path3405" inkscape:connector-curvature="0" d="M668.301,144.499c-0.1-2.5,1.299-4,3.799-4c1.201,0,2.301,0.301,3,1.102
				c0.701,0.799,0.701,1.799,0.701,2.799v8.9c0,0.9,0.199,1,1,1v1.1c-0.5,0.201-1.1,0.201-1.701,0.1
				c-0.699-0.299-0.699-0.6-0.799-1.299l0,0c-0.801,1-1.9,1.5-3.201,1.5c-2.6,0-3.299-1.801-3.299-4.1c0-1.701,0.5-2.9,2-3.701
				c1.299-0.6,2.699-1,3.9-1.6c0.199-0.1,0.398-0.4,0.398-0.6c0.102-0.6,0.102-1.801-0.1-2.4c-0.199-0.9-0.699-1.4-2.1-1.4
				c-2.1,0-2.1,1.4-2.4,2.701h-1.199V144.499z M674.301,147.499c-1,0.5-2,0.9-3,1.301c-1.5,0.699-1.9,1.301-1.9,3
				c0,1.4,0.4,2.5,2,2.5c1,0,1.699-0.4,2.1-1.1c0.6-0.9,0.699-2.1,0.699-3.201v-2.5H674.301z"/>
			<path id="path3407" inkscape:connector-curvature="0" d="M686.801,150.499c0,2.701-1,5.201-4,5.201c-4.201,0-4.4-4.4-4.4-7.701
				c0-3.1,0.299-7.5,4.299-7.5c2.602,0,3.9,2.201,3.9,4.602h-1.5c-0.1-1.801-0.9-3.301-2.5-3.301c-2.9,0.1-2.699,4.199-2.699,6.4
				c0,2-0.1,6.1,2.9,6.1c2.1,0,2.299-2.199,2.5-3.801H686.801z"/>
			<path id="path3409" inkscape:connector-curvature="0" d="M689.599,138.2v-2.5h1.801v2.5H689.599z M689.801,155.3v-14.4h1.5v14.4
				H689.801z"/>
			<path id="path3411" inkscape:connector-curvature="0" d="M694.701,147.7c0-3.201,0.6-7.201,4.6-7.201c4.1,0,4.5,4.4,4.5,7.5
				c0,3.301-0.4,7.602-4.6,7.602C694.801,155.7,694.701,151.101,694.701,147.7L694.701,147.7z M702.301,147.999
				c0-2.199-0.1-6.199-3.201-6.199c-2.699,0-2.9,3.9-2.9,5.9c0,2.1-0.199,6.6,3,6.6C702.199,154.3,702.301,150.2,702.301,147.999
				L702.301,147.999z M697.599,139.399l2.9-3.6h2l-3.6,3.6H697.599L697.599,139.399z"/>
			<path id="path3413" inkscape:connector-curvature="0" d="M708.201,155.3h-1.5v-14.4h1.5v1.4h0.1c0.699-1.1,1.9-1.801,3.299-1.801
				c1.9,0,3.4,1.301,3.4,3.301v11.5h-1.5v-10.5c0-1.6-0.1-3-2.1-3c-1.5,0-3.1,1.199-3.1,2.801V155.3H708.201z"/>
		</g>
	</g>
</g>
</svg>
